<?xml version="1.0" encoding="utf-8"?>
<!-- Generator: Adobe Illustrator 23.0.3, SVG Export Plug-In . SVG Version: 6.00 Build 0)  -->
<svg version="1.1" id="圖層_1" xmlns="http://www.w3.org/2000/svg" xmlns:xlink="http://www.w3.org/1999/xlink" x="0px" y="0px"
	 viewBox="0 0 56.7 51" style="enable-background:new 0 0 56.7 51;" xml:space="preserve">
<style type="text/css">
	.st0{fill:#8B216B;}
</style>
<title>資產 1</title>
<g>
	<g id="圖層_1-2">
		<path class="st0" d="M48.3,26.3c0-2.3-1.8-4.1-4.1-4.2h-8.7v-8.2c0.2-4.1-3-7.6-7.1-7.8h-0.2c-1,0-1.9,0.4-2.6,1.1
			c-0.8,0.8-1.2,1.9-1.1,3c0.1,2.1-0.1,4.1-0.6,6.2c-1.4,2.4-3.4,4.5-5.8,6v-0.2H8.4v28.7H18v-0.5c1.2,0.4,2.5,0.5,3.8,0.5H41
			c2.3,0,4.1-1.9,4.1-4.2v-1.2c0-0.5-0.1-1.1-0.3-1.6c1.2-0.8,1.9-2,1.9-3.4v-1.4c-0.8-1.8-0.1-4,1.6-5.1v-1.3
			c0-0.9-0.3-1.8-0.9-2.5c0.6-0.7,0.9-1.6,0.9-2.6V26.3z M11.6,47.7V25.4h3.2v22.3H11.6z M45.1,27.6c0,0.5-0.4,0.9-0.9,1h-0.7
			c-0.9,0-1.6,0.7-1.7,1.5c0,0.9,0.7,1.6,1.5,1.7h0.8c0.5,0,0.9,0.4,0.9,0.9l0,0l0,0V34c0,0.5-0.4,0.9-0.9,0.9h-2.3
			c-0.9,0-1.6,0.7-1.7,1.5c0,0.9,0.7,1.6,1.5,1.7l0,0h0.8c0.5,0,0.9,0.4,0.9,0.9l0,0v1.3c0,0.5-0.4,1-1,1h-0.7
			c0-0.1-0.3-0.1-0.6-0.1c-0.9,0-1.6,0.6-1.7,1.5c0,0.9,0.6,1.6,1.5,1.7H41c0.5,0,0.9,0.5,0.9,1v1.3c0,0.5-0.4,1-0.9,1H21.8
			c-1.3,0-2.6-0.2-3.8-0.7V26.3c3.6-2,6.6-4.9,8.7-8.4c0.8-2.5,1.1-5,0.9-7.6c0-0.3,0.1-0.5,0.2-0.7c0.1-0.1,0.2-0.2,0.3-0.2h0.2
			c2.3,0.2,4.1,2.2,4,4.5v9.8c0,0.9,0.7,1.6,1.6,1.6l0,0h10.3c0.5,0,0.9,0.5,0.9,1L45.1,27.6z"/>
	</g>
</g>
</svg>
