<?xml version="1.0" encoding="utf-8"?>
<!-- Generator: Adobe Illustrator 23.0.3, SVG Export Plug-In . SVG Version: 6.00 Build 0)  -->
<svg version="1.1" id="圖層_1" xmlns="http://www.w3.org/2000/svg" xmlns:xlink="http://www.w3.org/1999/xlink" x="0px" y="0px"
	 viewBox="0 0 56.7 51" style="enable-background:new 0 0 56.7 51;" xml:space="preserve">
<style type="text/css">
	.st0{fill:#8C226C;}
</style>
<g>
	<title>Group 933</title>
	<g>
		<g id="圖層_1-2_1_">
			<g id="Group_933_1_">
				<path id="Path_465_1_" class="st0" d="M21.2,42.4c2.3,0,4.2,1.9,4.2,4.2c0,2.3-1.9,4.2-4.2,4.2S17,49,17,46.6
					C17,44.3,18.9,42.4,21.2,42.4L21.2,42.4z"/>
				<path id="Path_466_1_" class="st0" d="M38.7,42.4c2.3,0,4.2,1.9,4.2,4.2c0,2.3-1.9,4.2-4.2,4.2c-2.3,0-4.2-1.9-4.2-4.2l0,0
					C34.5,44.3,36.4,42.4,38.7,42.4L38.7,42.4z"/>
				<path id="Path_467_1_" class="st0" d="M49,18.2H24.1c-0.8,0.2-1.5,1.1-1.5,1.9c0,0.9,0.6,1.8,1.5,2.1h22.3l-1.3,4.2H23.3
					c-0.8,0.2-1.5,1.1-1.4,1.9c0,0.8,0.5,1.6,1.4,1.9h20.9l-1.2,4H20.2l-1.5-12l-0.5-4c0,0-0.4-3.7-0.7-5.3S13.4,9.5,5.1,5.6
					c-2-0.8-3.6,2.7,0,4.6l6.5,3.1c0,0,1.5,0.8,1.7,2.1s2.7,21,2.7,21s0.1,2.7,2.6,2.7h25c1.3-0.1,2.3-0.9,2.5-2.2l4.9-14.7
					C51.2,22.1,52.8,18.2,49,18.2z"/>
			</g>
		</g>
	</g>
</g>
</svg>
