<?xml version="1.0" encoding="utf-8"?>
<!-- Generator: Adobe Illustrator 23.0.3, SVG Export Plug-In . SVG Version: 6.00 Build 0)  -->
<svg version="1.1" id="圖層_1" xmlns="http://www.w3.org/2000/svg" xmlns:xlink="http://www.w3.org/1999/xlink" x="0px" y="0px"
	 viewBox="0 0 56.7 51" style="enable-background:new 0 0 56.7 51;" xml:space="preserve">
<style type="text/css">
	.st0{fill:#8B216B;}
</style>
<title>Group 940</title>
<g>
	<g id="圖層_1-2">
		<g id="Group_940">
			<g id="Group_939">
				<path id="Path_1888" class="st0" d="M39.8,33.7v-2.4c0.3,0.2,0.6,0.3,0.8,0.6c0.2,0.1,0.4,0.2,0.6,0.2c0.1,0,0.3-0.1,0.4-0.1
					l0,0l1.3-0.9c0.2-0.1,0.3-0.3,0.3-0.5c0-0.2-0.1-0.3-0.2-0.4c-0.8-1-2-1.7-3.2-1.9V27c0-0.4-0.3-0.7-0.7-0.7H38
					c-0.4,0-0.7,0.3-0.7,0.7c0,0,0,0,0,0v1.3c-0.6,0.1-1.1,0.3-1.7,0.5c-1.5,0.5-2.4,1.9-2.4,3.5c0,0.7,0.2,1.4,0.6,2
					c0.8,1.1,2.1,1.8,3.4,1.9v3c-0.7-0.3-1.4-0.8-1.9-1.4c-0.1-0.2-0.3-0.3-0.5-0.3c-0.1,0-0.2,0.1-0.4,0.1l0,0l-1.2,0.8
					c-0.3,0.1-0.4,0.5-0.3,0.7c0,0.1,0.1,0.1,0.1,0.2c0.3,0.5,0.8,0.9,1.3,1.3c0.8,0.7,1.8,1.2,2.9,1.3v1.2c0,0.4,0.3,0.7,0.7,0.7
					h1.2c0.4,0,0.7-0.3,0.7-0.7v-1.2c0.9-0.1,1.7-0.5,2.5-1c1.1-0.7,1.7-1.9,1.7-3.3c0-0.8-0.2-1.6-0.7-2.2
					C42.4,34.5,41.2,33.8,39.8,33.7z M37.3,33.4c-0.5-0.1-0.8-0.6-0.8-1.1c0-0.4,0.3-0.8,0.7-1h0.1V33.4z M40,39
					c-0.1,0.1-0.2,0.1-0.3,0.1v-2.6c0.6,0.1,1,0.6,1,1.2C40.7,38.3,40.5,38.7,40,39L40,39z"/>
				<path id="Path_1889" class="st0" d="M54.9,25.5c0-1.3-0.5-2.6-1.4-3.6c0,0,0-0.1-0.1-0.1c-0.3-0.3-0.7-0.6-1.1-0.8L32.8,5.8
					c-0.1-0.1-0.3-0.2-0.4-0.2l-0.2-0.1c-0.9-0.4-2-0.4-3-0.2h-0.1H29C21.5,7.4,11.9,10,5.8,11.6H3.3c-0.8,0-1.5,0.6-1.5,1.4
					c0,0,0,0,0,0l0,0v17c0,0.5,0.4,1,1,1l0,0h3V31c0.3,0.2,0.6,0.4,0.8,0.6c2.5,2.1,5.6,3.2,8.8,3.3c1.7,0,2.9,0,4-0.1h3.6V35
					c0,8.5,6.9,15.4,15.4,15.4c0.6,0,1.1,0,1.7-0.1c8.5-1,14.6-8.6,13.6-17.1c-0.1-1.3-0.4-2.5-0.9-3.7
					C54.2,28.6,54.9,27.1,54.9,25.5z M39,47.2c-6.7,0.3-12.4-4.9-12.7-11.6c0,0,0-0.1,0-0.1c0-0.2,0-0.4,0-0.7h1.2
					c2,0,3.7-1.7,3.6-3.7c0,0,0,0,0,0c0-1.5-0.9-2.9-2.3-3.5c2.1-2.7,5.1-4.4,8.5-4.7l7.5,5.2l2.1,1.7l0.1,0.1
					c0.1,0.1,0.3,0.2,0.4,0.2c0.2,0.1,0.5,0.2,0.8,0.3c0.2,0.1,0.4,0.1,0.6,0.2c0.3,0,0.6,0.1,0.9,0.1c0.6,1.6,0.9,3.3,0.8,5
					C50.3,42,45.3,46.9,39,47.2z M25.1,27.4h-5c-0.9-0.2-1.5-1.1-1.4-2c0-0.7,0.3-1.3,0.8-1.7l2.7-0.8c1-0.2,1.9-0.5,2.9-0.8
					l0.2-0.1c5.2-1.5,6.9-1.9,7.4-2.1c0.1,0,0.3,0,0.4,0l0.5,0.4C30.1,21.6,27.1,24.1,25.1,27.4L25.1,27.4z M50.1,27.7H50
					c-0.2,0-0.4,0-0.6,0l-0.2,0c-0.1,0-0.2-0.1-0.3-0.1l-0.2-0.1l-2.1-1.6l-12.1-8.3c-0.1-0.1-0.2-0.2-0.4-0.2
					c-0.6-0.1-1.1-0.2-1.7-0.2c-0.1,0-0.2,0-0.3,0c-0.5,0.1-3,0.8-7.7,2.1l-0.2,0.1c-1,0.3-1.9,0.6-2.8,0.8l-3,0.8
					c-0.1,0-0.2,0.1-0.3,0.1c-1.5,0.9-2.4,2.5-2.4,4.3c0,2.4,1.6,4.4,4,4.8h7.8c0.5,0.1,0.8,0.6,0.7,1c-0.1,0.3-0.3,0.6-0.7,0.7
					h-8.2c-1,0-2.3,0.1-3.9,0.1c-2.6-0.1-5.1-1-7.1-2.7c-0.5-0.4-1-0.8-1.5-1.1l-1.1-0.9V14.5c6.5-1.7,17.6-4.7,24-6.5l0,0
					C30.2,8,30.6,8,31,8.1h0.1l19.5,15.2l0.2,0.1c0.2,0.1,0.3,0.2,0.5,0.4v0c0.4,0.4,0.6,1,0.6,1.6C52,26.6,51.2,27.5,50.1,27.7
					L50.1,27.7z"/>
			</g>
		</g>
	</g>
</g>
</svg>
