<?xml version="1.0" encoding="utf-8"?>
<!-- Generator: Adobe Illustrator 23.0.3, SVG Export Plug-In . SVG Version: 6.00 Build 0)  -->
<svg version="1.1" id="圖層_1" xmlns="http://www.w3.org/2000/svg" xmlns:xlink="http://www.w3.org/1999/xlink" x="0px" y="0px"
	 viewBox="0 0 56.7 51" style="enable-background:new 0 0 56.7 51;" xml:space="preserve">
<style type="text/css">
	.st0{fill:#8B216B;}
</style>
<title>Group 941</title>
<g>
	<g id="圖層_1-2">
		<g id="Group_941">
			<path id="Path_1886" class="st0" d="M50,8.1c0-0.3,0-0.5-0.1-0.8c-0.1-0.5-0.4-0.9-0.8-1.2c-2.9-2.4-11.6-2.6-13.3-2.6
				c-1.7,0-10.3,0.1-13.2,2.5c-0.5,0.3-0.8,0.7-0.9,1.2c-0.1,0.4-0.1,0.8-0.1,1.2c0,8.7,0,10.6,0,11l0,0v4c-0.3,0-0.6,0-0.8,0
				c-7.7,0-13.9,6.2-14,13.9s6.2,13.9,13.9,14c5.8,0,11.1-3.6,13.1-9.1c0.7,0,1.4,0,2.1,0c6.5,0,14.2-0.8,14.2-5V8.6
				C50,8.5,50,8.3,50,8.1z M35.7,31.6c3,0,8.4-0.2,11.6-1.7v2.2c0,0,0,0.1,0,0.1c0,0.8-4.2,2.2-11.6,2.2c-0.5,0-0.9,0-1.5,0
				c-0.2-1-0.5-2-1-2.9C34.3,31.7,35.2,31.7,35.7,31.6L35.7,31.6z M34.6,37.3h1.1c3,0,8.4-0.2,11.6-1.7v1.7c0,0,0,0.1,0,0.1
				c0,0.8-4.2,2.2-11.6,2.2c-0.4,0-0.8,0-1.3,0c0.1-0.7,0.2-1.5,0.2-2.2C34.6,37.4,34.6,37.3,34.6,37.3L34.6,37.3z M31.6,37.4
				c0,6.1-4.9,10.9-11,10.9s-10.9-4.9-10.9-11c0-6,4.9-10.9,11-10.9C26.7,26.5,31.6,31.4,31.6,37.4L31.6,37.4z M24.1,23.7
				c3.8,1.2,7.7,1.7,11.6,1.6c3.9,0.1,7.9-0.5,11.6-1.6v2.9c0,0.8-4.2,2.2-11.6,2.2c-1.4,0-2.9-0.1-4.2-0.2c-1.9-2.3-4.5-4-7.4-4.7
				L24.1,23.7z M47.4,14c0,0.8-4.2,2.2-11.6,2.2S24.2,14.8,24.1,14v-2.9c3.8,1.2,7.7,1.7,11.6,1.6c3.9,0.1,7.9-0.5,11.6-1.6v2.7
				C47.3,13.9,47.3,13.9,47.4,14L47.4,14z M24.1,17.3c3.2,1.5,8.6,1.7,11.6,1.7c3,0,8.4-0.2,11.6-1.7v2.4c0,0.8-4.2,2.2-11.6,2.2
				s-11.6-1.4-11.6-2.1V17.3z M24.8,8.2C28.3,7,32,6.4,35.7,6.6c3.7-0.2,7.4,0.4,11,1.6c-3.5,1.2-7.2,1.7-11,1.6
				C32,9.9,28.3,9.3,24.8,8.2L24.8,8.2z"/>
			<path id="Path_1887" class="st0" d="M21.9,36.2v-2.2c0.3,0.1,0.5,0.3,0.8,0.5c0.1,0.1,0.3,0.2,0.5,0.2c0.1,0,0.3-0.1,0.4-0.1l0,0
				l1.2-0.8c0.2-0.1,0.3-0.3,0.3-0.4c0-0.1-0.1-0.3-0.2-0.4c-0.8-0.9-1.8-1.6-3-1.8v-1.2c0-0.3-0.3-0.6-0.6-0.6c0,0,0,0,0,0h-1.1
				c-0.3,0-0.6,0.3-0.6,0.6c0,0,0,0,0,0v1.2c-0.5,0.1-1.1,0.2-1.6,0.5c-1.4,0.5-2.2,1.8-2.2,3.3c0,0.7,0.2,1.3,0.6,1.8
				c0.8,1,1.9,1.6,3.2,1.8v2.8c-0.7-0.3-1.3-0.7-1.8-1.3c-0.1-0.2-0.3-0.3-0.5-0.3c-0.1,0-0.2,0.1-0.3,0.1l0,0l-1.1,0.7
				c-0.2,0.1-0.3,0.3-0.3,0.5c0,0.1,0,0.2,0.1,0.3c0.3,0.5,0.7,0.9,1.2,1.3c0.8,0.6,1.7,1.1,2.7,1.2V45c0,0.3,0.3,0.6,0.6,0.6
				c0,0,0,0,0,0h1.1c0.3,0,0.6-0.3,0.6-0.6c0,0,0,0,0,0l0,0v-1.1c0.8-0.1,1.6-0.4,2.3-0.9c1-0.7,1.6-1.8,1.6-3c0-0.7-0.2-1.5-0.6-2
				C24.4,36.9,23.2,36.3,21.9,36.2z M19.6,35.9c-0.4-0.1-0.7-0.6-0.7-1c0-0.4,0.3-0.8,0.6-0.9h0.1V35.9z M22.1,41.1l-0.2,0.1v-2.5
				c0.5,0.1,0.9,0.6,0.9,1.1C22.8,40.4,22.6,40.8,22.1,41.1L22.1,41.1z"/>
		</g>
	</g>
</g>
</svg>
