<?xml version="1.0" encoding="utf-8"?>
<!-- Generator: Adobe Illustrator 23.0.3, SVG Export Plug-In . SVG Version: 6.00 Build 0)  -->
<svg version="1.1" id="圖層_1" xmlns="http://www.w3.org/2000/svg" xmlns:xlink="http://www.w3.org/1999/xlink" x="0px" y="0px"
	 viewBox="0 0 56.7 51" style="enable-background:new 0 0 56.7 51;" xml:space="preserve">
<style type="text/css">
	.st0{fill:#8B216B;}
</style>
<title>資產 10</title>
<g>
	<g id="圖層_1-2">
		<path class="st0" d="M35.4,27.7c3-2.4,4.8-6,4.7-9.9c0.3-6.5-4.7-12-11.2-12.3s-12,4.7-12.3,11.2l0,0c0,0.4,0,0.7,0,1.1
			c0,3.9,1.7,7.5,4.7,9.9c-6.5,3.1-10.6,9.7-10.5,16.8c-0.1,3.4,2.6,6.3,6,6.4h23c3.4-0.1,6.1-2.9,6-6.3
			C46,37.4,41.9,30.8,35.4,27.7z M20.5,17.9c0.2-4.3,4-7.7,8.3-7.4s7.7,4,7.4,8.3c-0.2,4.2-3.7,7.4-7.8,7.4
			C23.9,26,20.4,22.3,20.5,17.9z M42,44.6c0,1.2-0.9,2.2-2.1,2.3h-23c-1.2,0-2.2-1.1-2.2-2.3c-0.4-7.5,5.4-13.9,12.9-14.3
			c0.2,0,0.5,0,0.7,0c7.2,0,13.2,5.7,13.6,12.9C42,43.6,42,44.1,42,44.6z"/>
	</g>
</g>
</svg>
