<?xml version="1.0" encoding="utf-8"?>
<!-- Generator: Adobe Illustrator 23.0.3, SVG Export Plug-In . SVG Version: 6.00 Build 0)  -->
<svg version="1.1" id="圖層_1" xmlns="http://www.w3.org/2000/svg" xmlns:xlink="http://www.w3.org/1999/xlink" x="0px" y="0px"
	 viewBox="0 0 56.7 51" style="enable-background:new 0 0 56.7 51;" xml:space="preserve">
<style type="text/css">
	.st0{fill:#8B216B;}
</style>
<title>資產 2</title>
<g>
	<g id="圖層_1-2_1_">
		<path class="st0" d="M49.1,19.9h-0.7v-11c0-1.9-1.5-3.4-3.4-3.4h-3c-1.9,0-3.4,1.5-3.4,3.4l0,0c-2.4,2.2-9.4,7.1-23.3,7.1H12
			c-5,0-8.9,4-8.9,8.9s4,8.9,8.9,8.9h0.8l3.3,13.7c0.4,2,2.2,3.3,4.3,3.4c0.3,0,0.7,0,1-0.1c2.3-0.6,3.9-3,3.2-5.3l-1.8-7.2
			c-0.1-0.8,0.1-1.7,0.6-2.3s1.2-1.1,2-1.2c4.8,0.9,9.4,2.9,13.2,5.8C39,42,40.4,43,41.9,43H45c1.9,0,3.4-1.5,3.4-3.4v-9.7H49
			c2.5,0,4.6-2.1,4.6-4.6v-0.8C53.6,21.9,51.7,19.9,49.1,19.9L49.1,19.9z M20.6,47.4c-0.6,0.1-1-0.1-1.2-0.7l0,0L16.3,34l4.1,0.3
			c-0.9,1.3-1.2,3-1,4.6V39l1.8,7.3C21.4,46.7,21,47.3,20.6,47.4L20.6,47.4z M25.9,31.3h-0.2c-3.4-0.7-6.8-1.1-10.4-1.1
			c-0.3,0-0.6,0-0.8,0.1h-2.6c-3.1,0-5.5-2.4-5.5-5.5s2.4-5.5,5.5-5.5h3.3c11.6,0,18.7-3.2,22.8-5.7l0.4,22.6
			C34.6,33.8,30.3,32.2,25.9,31.3z M50.2,25.2c0,0.7-0.6,1.2-1.2,1.2h-2.3c-1,0-1.8,0.8-1.8,1.7l0,0v11.5h-3.1V8.9h3.1v12.7
			c0,1,0.8,1.7,1.7,1.7l0,0h2.3c0.7,0,1.2,0.4,1.2,1.1c0,0,0,0,0,0.1L50.2,25.2C50.1,25.2,50.2,25.2,50.2,25.2z"/>
	</g>
</g>
</svg>
