<?xml version="1.0" encoding="utf-8"?>
<!-- Generator: Adobe Illustrator 23.0.3, SVG Export Plug-In . SVG Version: 6.00 Build 0)  -->
<svg version="1.1" id="圖層_1" xmlns="http://www.w3.org/2000/svg" xmlns:xlink="http://www.w3.org/1999/xlink" x="0px" y="0px"
	 viewBox="0 0 56.7 51" style="enable-background:new 0 0 56.7 51;" xml:space="preserve">
<style type="text/css">
	.st0{fill:#8B216B;}
</style>
<title>Group 943</title>
<g>
	<g id="圖層_1-2">
		<g id="Group_943">
			<path id="Path_1892" class="st0" d="M46.2,16.5C44.9,9.8,38.6,5.3,31.8,6.2l0,0l-0.7,0.1c-6.9,1.4-11.5,8.1-10.2,15.1
				c0.3,1.5,0.8,2.9,1.6,4.2L10.8,43c-0.4,0.6-0.6,1.3-0.5,2l0.7,3.7c0.3,1.4,1.5,2.3,2.9,2.3c0.2,0,0.4,0,0.5,0l3.7-0.7
				c0.7-0.1,1.3-0.6,1.6-1.2l1.3-1.9l2.7-0.6c1.6-0.3,2.6-1.8,2.3-3.4c0,0,0,0,0,0l-0.4-2l2-0.4c1.6-0.3,2.6-1.8,2.3-3.4l-0.5-2.7
				l2.1-3.1c1.5,0.3,3,0.2,4.5,0C43,30.2,47.5,23.5,46.2,16.5C46.2,16.5,46.2,16.5,46.2,16.5z M26.1,35.1l0.5,2.4l-2,0.4
				c-1.6,0.3-2.6,1.8-2.3,3.4l0.4,2l-2.4,0.5c-0.8,0.2-1.4,0.6-1.9,1.3L17.1,47l-2.8,0.6l-0.6-2.9l13-19.3l-0.2-0.3
				c-3.5-4-3.2-10.1,0.8-13.6s10.1-3.2,13.6,0.8c3.5,4,3.2,10.1-0.8,13.6c-2.6,2.3-6.3,3.1-9.7,1.9l-0.3-0.1l-3.5,5.2
				C26.2,33.6,26,34.4,26.1,35.1L26.1,35.1z"/>
			<path id="Path_1893" class="st0" d="M33.5,18.3c0.6,0.4,1.2,0.6,1.9,0.6c0.2,0,0.5,0,0.7-0.1c1.9-0.4,3.1-2.2,2.7-4.1
				c-0.4-1.9-2.2-3.1-4-2.7c0,0,0,0,0,0c-1.9,0.4-3.1,2.2-2.7,4C32.2,17,32.7,17.8,33.5,18.3z"/>
		</g>
	</g>
</g>
</svg>
