<?xml version="1.0" encoding="utf-8"?>
<!-- Generator: Adobe Illustrator 23.0.3, SVG Export Plug-In . SVG Version: 6.00 Build 0)  -->
<svg version="1.1" id="圖層_1" xmlns="http://www.w3.org/2000/svg" xmlns:xlink="http://www.w3.org/1999/xlink" x="0px" y="0px"
	 viewBox="0 0 512 512" style="enable-background:new 0 0 512 512;" xml:space="preserve">
<style type="text/css">
	.st0{fill:#EEE2F7;}
	.st1{fill:#8B216B;}
	.st2{fill:#B25192;}
</style>
<path class="st0" d="M416,512H96c-53,0-96-43-96-96V96C0,43,43,0,96,0h320c53,0,96,43,96,96v320C512,469,469,512,416,512z"/>
<path class="st1" d="M242.7,357.3c-25,0-45.3-20.3-45.3-45.3V160.2L145.8,172c-12.7,3.3-20.4,16.5-17,29.3l44.2,165
	c2.9,10.7,12.7,17.7,23.2,17.7c2,0,4-0.3,6-0.8l107.5-25.9L242.7,357.3L242.7,357.3z"/>
<path class="st2" d="M266.7,224c11.8,0,21.3-9.6,21.3-21.3s-9.6-21.3-21.3-21.3s-21.3,9.6-21.3,21.3S254.9,224,266.7,224z"/>
<path class="st1" d="M384,160c0-17.7-14.3-32-32-32H245.3c-17.7,0-32,14.3-32,32v149.3c0,17.7,14.3,32,32,32H352
	c17.7,0,32-14.3,32-32V160z M245.3,149.3H352c5.9,0,10.7,4.8,10.7,10.7v68.7l-8.1-8.1c-7.3-7.3-19.2-7.3-26.5,0l-50.8,50.8
	L263.9,258c-7.3-7.3-19.2-7.3-26.5,0l-2.8,2.8V160C234.7,154.1,239.4,149.3,245.3,149.3z"/>
</svg>
