<?xml version="1.0" encoding="utf-8"?>
<!-- Generator: Adobe Illustrator 23.0.3, SVG Export Plug-In . SVG Version: 6.00 Build 0)  -->
<svg version="1.1" id="圖層_1" xmlns="http://www.w3.org/2000/svg" xmlns:xlink="http://www.w3.org/1999/xlink" x="0px" y="0px"
	 viewBox="0 0 56.7 51" style="enable-background:new 0 0 56.7 51;" xml:space="preserve">
<style type="text/css">
	.st0{fill:#842166;}
</style>
<title>資產 1</title>
<path class="st0" d="M45,44l-2.3-25.8c-0.1-1-0.9-1.7-1.9-1.7h-3.6v-2.2c0.1-2.3-0.8-4.6-2.3-6.3c-1.6-1.7-3.8-2.7-6.1-2.8
	c-2.3-0.1-4.6,0.7-6.3,2.3s-2.7,3.8-2.8,6.1c0,0.2,0,0.4,0,0.6v2.2H16c-1,0-1.8,0.7-1.9,1.7L11.7,44c-0.1,1.6,0.3,3.2,1.4,4.4
	s2.5,2,4.1,2.1c0.2,0,0.4,0,0.5,0H39c3.3,0,6-2.7,6-6C45,44.3,45,44.2,45,44z M21.5,25.7c1,0,1.9-0.8,1.9-1.9v-3.6h10l0,3.6
	c0,0.5,0.1,1,0.4,1.4c0.3,0.4,0.8,0.6,1.3,0.7c1,0.1,1.9-0.7,2-1.7c0-0.1,0-0.2,0-0.3v-3.6H39l2.2,24.1c0.1,0.6-0.1,1.3-0.6,1.7
	c-0.4,0.5-1,0.7-1.7,0.7H17.7c-0.6,0-1.2-0.3-1.7-0.7c-0.4-0.5-0.6-1.1-0.6-1.7l2.2-24.1h1.9v3.6C19.6,24.9,20.4,25.7,21.5,25.7z
	 M23.3,16.5v-2.2c0-2.8,2.2-5,5-5c0,0,0,0,0,0c1.3,0,2.6,0.5,3.5,1.5c0.9,0.9,1.5,2.2,1.5,3.5v2.2H23.3z"/>
</svg>
